<svg xmlns="http://www.w3.org/2000/svg" width="63" height="56" viewBox="0 0 63 56">
    <g fill="none" fill-rule="evenodd">
        <g>
            <g>
                <g>
                    <g fill-rule="nonzero">
                        <path fill="#FFAB00" d="M50.962 32.837c-.681.223-1.377.399-2.083.525-6.041 1.078-11.444-.532-15.268-5.438-2.853-3.684-5.021-7.936-7.56-11.893-1.145-1.797-2.265-3.655-3.713-5.179-1.768-1.867-4.33-2.748-6.862-2.358-.896.128-1.765.403-2.571.816-2.442 1.238-4.133 3.596-4.533 6.321-.4 2.725.543 5.476 2.525 7.373 2.853 2.688 6.808 3.022 9.918 1.05.64-.403 1.224-.886 1.74-1.439.104-.11.204-.226.304-.341.331-.38.656-.783 1.07-1.258l4.508 7.497c-.46.493-.948.96-1.46 1.398-.678.585-1.403 1.111-2.167 1.575-2.582 1.548-5.559 2.298-8.56 2.156C6.91 33.344-.37 25.696.03 16.282.305 9.764 3.368 4.829 9.02 2.023c.386-.198.786-.382 1.196-.55.41-.17.845-.338 1.262-.486 5.97-2.07 11.566-.891 16.445 3.63 3.292 3.055 5.236 7.06 7.418 10.901 1.272 2.355 2.713 4.614 4.312 6.757 1.9 2.433 4.512 3.407 7.265 2.972l4.044 7.591zM35.402 3.84l4.094 7.62c-.3.323-.603.664-.93 1.013l-4.47-7.282c.399-.485.835-.937 1.306-1.351zM62.214 19.834c-.791 5.082-4.176 9.6-8.791 11.979l-3.959-7.372c2.725-1.35 4.525-4.066 4.719-7.12.175-3.54-1.866-6.811-5.107-8.187-2.693-1.125-5.232-.952-7.53.546L37.57 2.266c5.053-2.857 11.207-2.897 16.295-.104 6.263 3.568 9.49 10.39 8.35 17.672z" transform="translate(-501 -1206) translate(501 1206)"/>
                        <path fill="#FFC600" d="M28.422 28.499c-.46.493-.947.96-1.458 1.398-.679.584-1.404 1.11-2.169 1.574l-3.98-7.418c.64-.402 1.224-.885 1.74-1.438.104-.11.204-.226.304-.341.331-.38.656-.783 1.07-1.258l4.493 7.483z" transform="translate(-501 -1206) translate(501 1206)"/>
                        <path fill="#2E3048" d="M39.496 11.46c-.3.323-.603.664-.93 1.013l-4.47-7.282c.399-.485.835-.937 1.306-1.351l4.094 7.62z" transform="translate(-501 -1206) translate(501 1206)"/>
                        <path fill="#EE2737" d="M46.89 25.246l4.072 7.591c-.681.223-1.377.399-2.083.525-6.041 1.078-11.444-.532-15.268-5.438-2.853-3.684-5.021-7.936-7.56-11.893-1.145-1.797-2.265-3.655-3.713-5.179-1.768-1.867-4.33-2.748-6.862-2.358-.896.128-1.765.403-2.571.816L8.982 2.021c.385-.197.784-.38 1.194-.55.41-.168.846-.337 1.263-.485 5.97-2.07 11.566-.891 16.445 3.63 3.292 3.055 5.235 7.06 7.418 10.901 1.272 2.355 2.713 4.614 4.312 6.757 1.911 2.433 4.522 3.407 7.275 2.972z" transform="translate(-501 -1206) translate(501 1206)"/>
                        <path fill="#2E3048" d="M53.423 31.813c-.79.41-1.613.753-2.46 1.024l-4.074-7.59c.61-.089 1.208-.244 1.784-.464.27-.1.538-.216.795-.342l3.955 7.372zM41.547 9.68c-.407.264-.793.558-1.156.88-.317.28-.616.58-.895.9l-4.094-7.62c.669-.596 1.395-1.124 2.168-1.574l3.977 7.414z" transform="translate(-501 -1206) translate(501 1206)"/>
                        <path fill="#FFC600" d="M26.964 29.897c-.679.584-1.404 1.11-2.169 1.574-2.582 1.549-5.558 2.298-8.56 2.157-9.34-.299-16.619-7.947-16.22-17.36C.29 9.748 3.355 4.814 9.008 2.007c.385-.198.784-.381 1.194-.55.41-.169.846-.338 1.263-.485L15.49 8.48c-.895.127-1.764.403-2.571.816-2.442 1.238-4.133 3.596-4.532 6.321-.4 2.725.542 5.476 2.524 7.372 2.853 2.689 6.808 3.023 9.918 1.05.64-.402 1.224-.885 1.74-1.438.104-.111.204-.226.304-.341l4.09 7.637z" transform="translate(-501 -1206) translate(501 1206)"/>
                        <path fill="#2E3048" d="M62.214 19.834c-.791 5.082-4.176 9.6-8.791 11.979l-3.959-7.372c2.725-1.35 4.525-4.066 4.719-7.12.175-3.54-1.866-6.811-5.107-8.187-2.693-1.125-5.232-.952-7.53.546L37.57 2.266c5.053-2.857 11.207-2.897 16.295-.104 6.263 3.568 9.49 10.39 8.35 17.672z" transform="translate(-501 -1206) translate(501 1206)"/>
                    </g>
                </g>
            </g>
        </g>
    </g>
</svg>
