<svg xmlns="http://www.w3.org/2000/svg" width="56" height="56" viewBox="0 0 56 56">
    <g fill="none" fill-rule="evenodd">
        <g>
            <g>
                <g fill-rule="nonzero" transform="translate(-1043 -1204) translate(1043 1204)">
                    <path fill="#FFC600" d="M40.998 25.292c.042-1.486-.585-2.906-1.695-3.836-3.123-2.733-6.239-5.468-9.349-8.205-.806-.727-1.838-1.124-2.904-1.118-4.52-.038-9.02-.097-13.53-.133-2.636-.023-4.506 1.93-4.52 4.701V51.333c0 2.11 1.13 3.807 2.972 4.426.511.161 1.043.239 1.577.23 7.633.014 15.269.014 22.906 0 2.726 0 4.535-1.915 4.537-4.757.004-8.64.006-17.287.006-25.94z"/>
                    <path fill="#2F3043" d="M19.004 29c1.098.008 1.987.88 1.995 1.96.027.72-.348 1.396-.977 1.764-.63.368-1.414.368-2.044 0-.63-.368-1.004-1.044-.977-1.764.005-1.084.9-1.96 2.003-1.96zM29.937 33c-1.1-.048-1.96-.96-1.936-2.053.013-.71.407-1.357 1.033-1.7.625-.343 1.387-.328 2 .038.611.367.98 1.03.966 1.738-.006.535-.228 1.045-.615 1.416-.388.372-.91.573-1.448.56zM20 37c0 2.21 1.79 4 4 4s4-1.79 4-4M4 11.843L9.326 19c4.747-4.773 9.551-6.034 12.674-6.654C20.657 8.443 19.326 4 19.326 4l-2.522 6.199-6.42-4.654.321 7.93L4 11.844z"/>
                    <circle cx="1.5" cy="11.5" r="1.5" fill="#2F3043"/>
                    <circle cx="19.5" cy="1.5" r="1.5" fill="#2F3043"/>
                    <circle cx="8.5" cy="4.5" r="1.5" fill="#2F3043"/>
                </g>
            </g>
        </g>
    </g>
</svg>
