<svg xmlns="http://www.w3.org/2000/svg" width="56" height="56" viewBox="0 0 56 56">
    <g fill="none" fill-rule="evenodd">
        <g>
            <g>
                <g>
                    <path fill="#2F3043" fill-rule="nonzero" d="M20 30L13 22.757 14.777 20.917 17.485 23.721 17.485 11 20 11zM24.513 30L22 30 22 11 29 18.243 27.223 20.086 24.513 17.276z" transform="translate(-772 -1206) translate(772 1206)"/>
                    <path fill="#EE2737" fill-rule="nonzero" d="M21.875 36.14c-5.075 0-9.627-2.765-12.274-7.124l4.068-1.756L1.066 18 0 33.166l4.227-1.821C7.823 37.833 14.446 42 21.892 42 30.42 42 37.92 36.57 41 28.16l-5.456-2.03c-2.243 6.083-7.605 10.01-13.669 10.01zM38.785 10.655C35.188 4.167 28.563 0 21.115 0 12.586 0 5.082 5.43 2 13.84l5.458 2.03c2.23-6.083 7.59-10.01 13.66-10.01 5.08 0 9.63 2.765 12.278 7.124l-4.07 1.756L41.934 24 43 8.834l-4.215 1.821z" transform="translate(-772 -1206) translate(772 1206)"/>
                </g>
            </g>
        </g>
    </g>
</svg>
