<svg width="161" height="139" xmlns="http://www.w3.org/2000/svg" xmlns:xlink="http://www.w3.org/1999/xlink">
    <defs>
        <path id="a" d="M0 .18h159.081V6.56H.001z"/>
        <path d="M11.175.49c-3.206.523-5.9 1.612-8.704 5.076C-.332 9.029.185 14.1 1.41 16.95c1.26 2.928 3.8 6.276 5.984 8.547 1.823-.705 2.756-5.601 3.366-7.995 1.208-2.021 3.296-.807 4.114-2.41.322-.632.419-1.682.453-2.859 3.466 1.658 11.118 1.195 12.605-4.424-.724 1.33-2.743 2.206-2.743 2.206s4.22-3.354.18-6.225c1.146 3.022-.512 4.502-.512 4.502s.181-1.027-.543-1.903c-.058 1.584-.994 1.39-2.39-.458-1.396-1.848-1.895-2.959-3.667-4.02C16.743 1.006 15.221.326 13.09.326c-.588 0-1.222.052-1.915.165" id="c"/>
        <path d="M.332.44s-.737 3.183 1.334 3.098C3.736 3.455 3.554.794 3.487.055 2.541.11.332.44.332.44" id="f"/>
        <path d="M1.198 1.187C3.251 1.202 4.18.382 3.02.3a6.544 6.544 0 0 0-.467-.017c-1.974 0-3.26.89-1.355.904" id="i"/>
        <path id="l" d="M.271.41h24.014v24.364H.271z"/>
        <linearGradient x1="0%" y1="49.999%" x2="99.999%" y2="49.999%" id="d">
            <stop offset="0%"/>
            <stop stop-color="#78605D" offset="100%"/>
        </linearGradient>
        <linearGradient x1="49.184%" y1="8.463%" x2="52.207%" y2="96.554%" id="g">
            <stop stop-color="#C99169" offset="0%"/>
            <stop stop-color="#C99169" offset="100%"/>
        </linearGradient>
        <linearGradient x1="4.473%" y1="46.701%" x2="95.579%" y2="53.177%" id="j">
            <stop stop-color="#4F3025" offset="0%"/>
            <stop stop-color="#3B211D" offset="100%"/>
        </linearGradient>
    </defs>
    <g fill="none" fill-rule="evenodd">
        <g transform="matrix(-1 0 0 1 160.318 131.204)">
            <mask id="b" fill="#fff">
                <use xlink:href="#a"/>
            </mask>
            <path d="M159.081 3.37c0 1.76-35.612 3.189-79.54 3.189C35.61 6.559 0 5.131 0 3.369 0 1.61 35.61.182 79.54.182c43.928 0 79.54 1.427 79.54 3.189" fill="#181822" opacity=".165" style="mix-blend-mode:multiply" mask="url(#b)"/>
        </g>
        <path fill="#5B1321" d="m133.533 89.041.526.72 13.818-10.124-.526-.72z"/>
        <path d="M12.618 116.963c0 9.956 8.052 18.027 17.985 18.027 9.932 0 17.983-8.07 17.983-18.027 0-9.956-8.051-18.027-17.983-18.027-9.933 0-17.985 8.07-17.985 18.027" fill="#474746"/>
        <path d="M15.297 116.963c0 8.473 6.852 15.342 15.305 15.342 8.454 0 15.306-6.869 15.306-15.342s-6.852-15.342-15.306-15.342c-8.453 0-15.305 6.869-15.305 15.342" fill="#6E6D6C"/>
        <path d="M19.362 116.963c0 6.222 5.033 11.267 11.24 11.267 6.208 0 11.24-5.045 11.24-11.267 0-6.222-5.032-11.267-11.24-11.267-6.207 0-11.24 5.045-11.24 11.267" fill="#8C8989"/>
        <path d="M24.945 116.963a5.21 5.21 0 0 0 5.205 5.217 5.21 5.21 0 0 0 5.204-5.217 5.21 5.21 0 0 0-5.204-5.217 5.211 5.211 0 0 0-5.205 5.217M108.392 116.963c0 9.956 8.052 18.027 17.984 18.027 9.933 0 17.984-8.07 17.984-18.027 0-9.956-8.051-18.027-17.984-18.027-9.932 0-17.984 8.07-17.984 18.027" fill="#474746"/>
        <path d="M111.07 116.963c0 8.473 6.853 15.342 15.306 15.342s15.306-6.869 15.306-15.342-6.853-15.342-15.306-15.342-15.306 6.869-15.306 15.342" fill="#6E6D6C"/>
        <path d="M115.136 116.963c0 6.222 5.032 11.267 11.24 11.267s11.24-5.045 11.24-11.267c0-6.222-5.032-11.267-11.24-11.267s-11.24 5.045-11.24 11.267" fill="#8C8989"/>
        <path d="M121.172 116.963a5.21 5.21 0 0 0 5.204 5.217 5.21 5.21 0 0 0 5.204-5.217 5.21 5.21 0 0 0-5.204-5.217 5.21 5.21 0 0 0-5.204 5.217" fill="#474746"/>
        <path fill="#5B1321" d="M127.92 84.01h-1.574v-4.618h1.573zM119.428 84.01h-1.574v-4.618h1.574z"/>
        <path d="M109.74 69.512c-2.204 3.8-2.265 8.041-14.82 8.693-11.957.62-16.46 2.685-21.321 2.212-3.496-.341-4.653-9.159.158-9.513 5.496-.404 21.05-1.473 21.05-1.473l14.934.081z" fill="#062338"/>
        <path d="m80.243 79.33-10.037 33.032-7.9-.138s9.14-35.616 10.075-39.032c3.111 1.248 7.862 6.138 7.862 6.138" fill="#B08900"/>
        <path d="M88.325 80.666s36.63.693 39.28.808c2.65.115 3.42.681 3.11 1.732-.19.647-.15 1.342 1.052 2.692.986 1.108 2.894 3.024 4.143 4.061 3.262 2.712-24.793 22.138-26.162 23.31-2.837 2.428-5.052 4.3-5.052 4.3s-41.482.045-45.975.045c-4.493 0-19.93-16.287-21.93-25.15 7.485-4.14 10.916-13.57 12.496-17.158 1.579-3.587 6.356-16.239 6.744-17.716.388-1.478 3.647-.545 2.25 2.644-1.396 3.189-6.828 18.123-7.604 21.39-.776 3.266-.931 7.544 1.63 12.91 2.56 5.367 8.303 12.757 9.544 14.156 1.241 1.4 4.035 2.256 7.76 2.256h17.846c3.027 0 10.196-5.75 10.476-12.678.465-11.51-9.608-17.602-9.608-17.602" fill="#DC202F"/>
        <path d="M151.99 112.286s-1.57-17.922-18.234-23.966c-12.32-4.467-25.472 1.198-29.998 12.447-2.951 7.332-.8 15.428-.057 17.228 7.367 1.489 42.902-1.49 48.289-5.71" fill="#EE2737"/>
        <path d="M56.054 117.505h50.099c.727 0 1.316.591 1.316 1.32 0 .729-.59 1.32-1.316 1.32h-50.1c-.726 0-1.316-.591-1.316-1.32 0-.729.59-1.32 1.317-1.32" fill="#E50042"/>
        <path d="M108.998 81.377c3.591-.11 3.895-4.09.215-4.266-3.68-.175-22.467 1.363-23.917 1.475-1.45.112-1.379 2.74.524 2.761 3.211.038 18.589.17 23.178.03" fill="#711B2E"/>
        <path d="M115.118 52.733h35.564a.51.51 0 0 1 .51.511v25.763h-36.584V53.244a.51.51 0 0 1 .51-.511" fill="#EE2737"/>
        <path d="M151.192 56.988v22.019h-36.585v-8.66c20.573 4.542 31.683-1.288 36.585-13.36" fill="#DC202F"/>
        <path stroke="#711B2E" stroke-width="1.408" stroke-linecap="round" d="M133.116 52.32v26.616"/>
        <path d="M113.756 80.39h38.938a1.033 1.033 0 0 0 0-2.066h-38.938a1.032 1.032 0 0 0 0 2.066" fill="#711B2E"/>
        <path d="M49.865 55.456v9.588c-2.47-.314-2.47-9.273 0-9.588" fill="#92D5F7"/>
        <path d="M54.795 60.25a4.804 4.804 0 0 1-3.756 4.689v-9.377a4.804 4.804 0 0 1 3.756 4.688" fill="#E50042"/>
        <path d="M49.997 55.441c.359 0 .705.046 1.042.12v9.378a4.758 4.758 0 0 1-1.042.12c-.045 0-.089-.009-.133-.014v-9.589c.044-.005.088-.015.133-.015" fill="#A1A1A1"/>
        <path d="M87.072 109.714s-5.795.61-6.69.79c-.897.18-10.837 2.963-10.837 5.56 1.06 0 4.743.002 9.905.002 3.154 0 9.916.326 10.828-.001.274-.099.839-.98.391-1.86-.812-1.593-3.04-4.516-3.597-4.49" fill="#FFF"/>
        <path fill="#2F3043" d="M90.277 117.48H69.545v-1.415h20.732z"/>
        <path fill="#F4A67B" d="m90.251 32.529 5.009-3.646-3.933-5.429L86.32 27.1zM79.472 54.953c-1.66.664-7.852 3.255-17.514 2.909-1.09-.465-5.754-.821-5.754-.821s.667-1.312 2.583-1.435c4.053-.26 6.285-.73 9.474-1.122 3.924-.484 6.715-1.49 8.91-2.42 1.605-.68 4.358-2.702 4.358-2.702l3.205 3.127s-1.824 1.09-5.262 2.464"/>
        <path d="M99.125 31.332c-2.349-1.35-5.199-.383-7.334 4.238-2.136 4.622-5.164 9.657-11.141 12.9.527 2.588 4.274 4.585 4.274 4.585s8.948-3.812 11.976-8.88c3.955-6.62 4.573-11.493 2.225-12.843" fill="#BC3D57"/>
        <path d="M109.74 69.512c-.064 3.94-2.265 8.041-14.82 8.693-11.957.62-19.37.794-24.23.32-3.497-.34-4.653-9.159.157-9.513 5.497-.403 21.05-1.473 21.05-1.473l17.844 1.973z" fill="#FEC500"/>
        <path d="m77.86 76.322 9.253 33.26-7.957 1.128S68.983 78.767 67.938 75.383c3.293-.624 9.921.939 9.921.939" fill="#FEC500"/>
        <path d="M109.741 69.512c.01-4.202-2.405-21.926-4.773-29.098-2.398-7.267-6.627-13.574-11.288-12.195-7.634 2.257-5.049 11.15-4.635 17.687.414 6.537 2.852 21.633 2.852 21.633s8.225 1.87 17.844 1.973" fill="#EE2737"/>
        <path d="M76.617 56.994c-1.602.73-3.172 3.727-16.695 2.623-2.018.154-4.834-.513-4.834-.513s.174-3.357 3.052-3.172c1.847.119 4.69.652 7.75.27 3.766-.471 6.458-1.57 8.576-2.595 1.55-.749 4.224-3.022 4.224-3.022l3.01 3.682s-1.766 1.217-5.083 2.727" fill="#FFC2A1"/>
        <path d="M95.872 30.164c-2.223-1.612-4.97-.56-7.1 4.728-2.132 5.288-5.124 11.033-10.907 14.643.457 3 4.007 5.39 4.007 5.39s8.64-4.201 11.633-9.984c3.91-7.554 4.591-13.167 2.367-14.777" fill="#FF8E75"/>
        <path d="M92.965 25.489s-9.859 7.027-12.804 4.694c-.444-.351-1.675-3.546-2.434-5.876-1.12-3.443-1.986-7.99-1.369-11.102C77.38 8.063 82.713.647 87.665 2.008c4.95 1.36 16.272 7.304 5.3 23.48" fill="#FFC2A1"/>
        <path d="M78.625 17.305a.178.178 0 0 1 .022-.015l-.298-.619c-1.215 1.584-2.701 2.757-4.051 3.988 3.15 2.662 5.97-.138 5.033-3.582-.29.027-.56.15-.706.228-.164.11-.14.076 0 0" fill="#FFC2A1"/>
        <g transform="matrix(-1 0 0 1 100.991 .901)">
            <mask id="e" fill="#fff">
                <use xlink:href="#c"/>
            </mask>
            <path d="M11.175.49c-3.206.523-5.9 1.612-8.704 5.076C-.332 9.029.185 14.1 1.41 16.95c1.26 2.928 3.8 6.276 5.984 8.547 1.823-.705 2.756-5.601 3.366-7.995 1.208-2.021 3.296-.807 4.114-2.41.322-.632.419-1.682.453-2.859 3.466 1.658 11.118 1.195 12.605-4.424-.724 1.33-2.743 2.206-2.743 2.206s4.22-3.354.18-6.225c1.146 3.022-.512 4.502-.512 4.502s.181-1.027-.543-1.903c-.058 1.584-.994 1.39-2.39-.458-1.396-1.848-1.895-2.959-3.667-4.02C16.743 1.006 15.221.326 13.09.326c-.588 0-1.222.052-1.915.165" fill="url(#d)" mask="url(#e)"/>
        </g>
        <path d="M90.83 17.253c-.401 1.651-2.035 3.478-3.117 3.214-1.082-.265-1.634-1.817-1.233-3.467.401-1.65 1.468-3.765 2.886-3.332 1.065.325 1.865 1.936 1.464 3.585" fill="#FFC2A1"/>
        <g transform="matrix(-1 0 0 1 80.925 14.019)">
            <mask id="h" fill="#fff">
                <use xlink:href="#f"/>
            </mask>
            <path d="M.332.44s-.737 3.183 1.334 3.098C3.736 3.455 3.554.794 3.487.055 2.541.11.332.44.332.44" fill="url(#g)" mask="url(#h)"/>
        </g>
        <g transform="matrix(-1 0 0 1 80.925 13.582)">
            <mask id="k" fill="#fff">
                <use xlink:href="#i"/>
            </mask>
            <path d="M1.198 1.187C3.251 1.202 4.18.382 3.02.3a6.544 6.544 0 0 0-.467-.017c-1.974 0-3.26.89-1.355.904" fill="url(#j)" mask="url(#k)"/>
        </g>
        <g>
            <path d="M79.905 17.295c-.65-1.15-1.922-.64-1.833.365" stroke="#4B2B19" stroke-width=".5"/>
            <path d="m78.46 111.187 9.097-1.213a.573.573 0 0 0 .492-.645l-.243-1.828a.573.573 0 0 0-.642-.493l-9.098 1.214a.573.573 0 0 0-.492.644l.243 1.828c.042.315.33.535.643.493" fill="#D3CCB5"/>
            <path d="M40.356 92.673C21.327 86.032 15.373 104.2 15.373 104.2s10.077-2.32 17.776 3.012c8.836 6.12 13.335 11.047 19.97 9.102 1.278-2.799-1.11-19.572-12.763-23.64" fill="#E50042"/>
            <path d="M54.892 59.945c0 1.447 1.17 2.62 2.615 2.62a2.617 2.617 0 0 0 2.614-2.62c0-1.448-1.17-2.621-2.614-2.621a2.618 2.618 0 0 0-2.615 2.62" fill="#3D3C3C"/>
            <path d="M56.243 59.945c0 .7.565 1.266 1.263 1.266s1.264-.567 1.264-1.266c0-.7-.566-1.267-1.264-1.267-.698 0-1.263.567-1.263 1.267" fill="#2A2A29"/>
            <path stroke="#D4E5EF" stroke-width=".5" d="m83.095 20.136 4.58-4.294M85.483 27.465l9.849-3.751"/>
            <g transform="matrix(-1 0 0 1 101.427 .027)">
                <mask id="m" fill="#fff">
                    <use xlink:href="#l"/>
                </mask>
                <path d="M2.233 21.981s-6.695-14.433 4.65-20.06C18.23-3.708 24.286 8.208 24.286 8.208l-9.476 5.12s.176 1.501.3 3.798c.115 2.117-.252 5.913-3.74 7.109-3.83 1.313-7.598.092-9.136-2.255" fill="#FFC600" mask="url(#m)"/>
            </g>
            <path d="M101.04 11.066c.676 5.503-1.846 10.942-1.846 10.942-1.538 2.347-5.305 3.568-9.135 2.255-3.489-1.197-3.856-4.992-3.741-7.11l.019-.328c5.33.723 10.874-1.154 14.703-5.759" fill="#FFC600"/>
            <path d="M99.194 22.008s-2.166 3.64-7.8 2.579c-3.758-.716-5.054-3.634-5.054-6.391 0-2.758.278-4.84.278-4.84l-9.476-5.12" stroke="#4A3A00" stroke-width="1.003" stroke-linecap="round" stroke-linejoin="round"/>
            <path d="M76.234 17.264c.205.428 1.357 1.463 2.84 2.135 1.483.673 3.57.351 4.382.174 1.66 1.982 2.873 6.896 2.265 8.217-1.496 1.09-3.797 1.955-5.57 2.139a1.127 1.127 0 0 1-.876-.282c-2.54-2.29-5.192-8.2-5.09-9.009.105-.85 1.89-2.278 2.05-3.374" fill="#CADEF8"/>
            <path d="M82.989 20.287c-2.17.272-4.03.053-5.661-1.22a7.798 7.798 0 0 1-1.273-1.279c.09-.18.155-.356.18-.524.203.428 1.356 1.463 2.839 2.136 1.483.672 3.57.35 4.382.173 1.66 1.981 2.873 6.896 2.264 8.218-1.495 1.088-3.795 1.954-5.568 2.138a1.127 1.127 0 0 1-.867-.276c1.114-.253 4.659-1.12 5.738-2.103.49-1.64-.819-5.998-2.034-7.263" fill="#98C1D6"/>
            <path d="M103.758 100.767c1.542-3.832 4.087-7.015 7.257-9.372-3.5 13.356 16.496 31.593 40.58 18.503.314 1.477.394 2.388.394 2.388-5.386 4.22-40.92 7.198-48.288 5.709-.743-1.8-2.894-9.895.057-17.228" fill="#DC202F"/>
            <path d="M126.8 86.846a25.47 25.47 0 0 0-5.784.183c-1.92.281-3.795.84-5.595 1.577-.443.2-.904.365-1.33.604l-1.29.688-1.236.785a5.95 5.95 0 0 0-.601.418l-.586.44c-1.54 1.198-2.96 2.572-4.146 4.138a22.702 22.702 0 0 0-2.901 5.112c-.728 1.835-1.165 3.776-1.366 5.73-.2 1.957-.17 3.929.04 5.879.11.974.256 1.945.465 2.905.208.964.445 1.907.811 2.864l.086.223.245.05c1.05.21 2.079.268 3.112.324 1.03.045 2.058.064 3.084.06 2.052-.004 4.1-.071 6.144-.17 2.045-.098 4.088-.23 6.127-.392a164.28 164.28 0 0 0 6.11-.58c4.066-.459 8.121-1.015 12.148-1.75 2.011-.381 4.015-.807 5.992-1.34.986-.277 1.972-.557 2.932-.92.953-.363 1.919-.754 2.729-1.388-.837.595-1.813.936-2.777 1.253-.965.326-1.955.572-2.945.811-1.985.463-3.995.817-6.01 1.129-4.025.646-8.08 1.113-12.141 1.485-4.063.359-8.13.687-12.202.847-2.036.083-4.073.136-6.105.125-2.023-.021-4.083-.062-6.019-.388l.33.273c-.331-.847-.578-1.782-.783-2.705a27.82 27.82 0 0 1-.47-2.814 27.365 27.365 0 0 1-.078-5.697c.18-1.891.589-3.76 1.274-5.525.71-1.758 1.606-3.444 2.72-4.986 1.117-1.54 2.467-2.905 3.945-4.104l.561-.442c.185-.152.376-.294.578-.421l1.191-.792 1.25-.7c.205-.124.421-.224.639-.322l.648-.306c1.74-.785 3.57-1.4 5.46-1.744a27.615 27.615 0 0 1 5.744-.417" fill="#920F29"/>
            <path d="M39.568 92.411c.26.084.522.17.788.262 11.654 4.068 14.04 20.841 12.762 23.64-5.082 1.49-8.912-1.054-14.397-5.075 4.594-1.905 7.803-9.467.847-18.827" fill="#BD0E36"/>
        </g>
    </g>
</svg>
