<svg xmlns="http://www.w3.org/2000/svg" width="67" height="65" viewBox="0 0 67 65">
    <g fill="none" fill-rule="evenodd">
        <g fill="#EE2737" fill-rule="nonzero">
            <path d="M131 3038v-26.92h-12.677c0-3.72.44-7.112 1.317-10.176.878-3.064 2.168-5.964 3.87-8.7 1.7-2.735 4.197-5.033 7.49-6.893V2973c-6.256 2.736-11.36 6.32-15.311 10.751-3.951 4.432-6.887 9.274-8.808 14.527-1.92 5.252-2.881 12.912-2.881 22.98V3038h27zm-40 0v-26.92H78.159c0-3.72.439-7.112 1.317-10.176.878-3.064 2.195-5.964 3.95-8.7 1.757-2.735 4.281-5.033 7.574-6.893V2973c-6.256 2.736-11.36 6.32-15.311 10.751-3.951 4.432-6.887 9.274-8.808 14.527-1.92 5.252-2.881 12.912-2.881 22.98V3038h27z" transform="translate(-64 -2973)"/>
        </g>
    </g>
</svg>
