<svg width="155" height="168" xmlns="http://www.w3.org/2000/svg" xmlns:xlink="http://www.w3.org/1999/xlink">
    <defs>
        <rect id="a" x="0" y="0" width="155" height="168" rx="10"/>
    </defs>
    <g fill="none" fill-rule="evenodd">
        <mask id="b" fill="#fff">
            <use xlink:href="#a"/>
        </mask>
        <g mask="url(#b)">
            <g transform="translate(7 82)">
                <rect fill="#EE2737" fill-rule="nonzero" x="9.937" y=".465" width="65.073" height="30.604" rx="8.39"/>
                <rect fill="#EE2737" fill-rule="nonzero" transform="rotate(180 87.315 15.767)" x="54.779" y=".465" width="65.073" height="30.604" rx="8.39"/>
                <path d="M5.178 38.457h119.114v4.33c0 .56-.229 1.096-.637 1.492a2.21 2.21 0 0 1-1.539.618H7.354c-1.202 0-2.176-.945-2.176-2.11v-4.33z" fill="#383A49" fill-rule="nonzero"/>
                <path fill="#2F3043" fill-rule="nonzero" d="M2.539 9.936h7.398v21.826H2.539z"/>
                <path fill="#2F3043" fill-rule="nonzero" d="M122.379 23.46v11.754H6.093V23.46z"/>
                <rect fill="#EE2737" fill-rule="nonzero" y="8.936" width="7.398" height="25" rx="3.699"/>
                <path d="M80.918 34.917v.54c0 2.123-1.774 3.843-3.961 3.843H3.96C1.774 39.3 0 37.58 0 35.458v-4.373h76.951c2.188 0 3.961 1.72 3.961 3.843l.006-.011z" fill="#EE2737" fill-rule="nonzero"/>
                <rect fill="#EE2737" fill-rule="nonzero" x="8.637" y="23.46" width="55.465" height="6.868" rx="3.05"/>
                <path d="M10.332 23.952c5.082-2.083 21.632-3.317 25.103-3.317 3.47 0 18.452.541 27.251 3.317H10.332z" fill="#FC4F68" fill-rule="nonzero"/>
                <path fill="#2F3043" fill-rule="nonzero" d="M127.25 31.767h-7.399V9.941h7.398z"/>
                <rect fill="#EE2737" fill-rule="nonzero" transform="rotate(180 126.083 22.441)" x="122.384" y="8.941" width="7.398" height="27" rx="3.699"/>
                <path d="M129.87 31.069v4.389c0 2.122-1.775 3.842-3.965 3.842h-73.07c-2.19 0-3.965-1.72-3.965-3.842v-.541c0-2.122 1.775-3.843 3.965-3.843h77.035v-.005z" fill="#EE2737" fill-rule="nonzero"/>
                <rect fill="#EE2737" fill-rule="nonzero" transform="rotate(180 93.413 26.894)" x="65.681" y="23.46" width="55.465" height="6.868" rx="3.05"/>
                <path d="M119.851 23.952c-5.145-2.083-21.652-3.317-25.17-3.317-3.519 0-18.678.541-27.585 3.317h52.755z" fill="#FC4F68" fill-rule="nonzero"/>
                <circle fill="#CC1D32" fill-rule="nonzero" cx="32.003" cy="8.529" r="1"/>
                <circle fill="#CC1D32" fill-rule="nonzero" cx="41.031" cy="8.529" r="1"/>
                <circle fill="#CC1D32" fill-rule="nonzero" cx="41.031" cy="17.285" r="1"/>
                <circle fill="#CC1D32" fill-rule="nonzero" cx="32.003" cy="17.285" r="1"/>
                <circle fill="#CC1D32" fill-rule="nonzero" cx="50.265" cy="8.529" r="1"/>
                <circle fill="#CC1D32" fill-rule="nonzero" cx="59.292" cy="8.529" r="1"/>
                <circle fill="#CC1D32" fill-rule="nonzero" cx="59.292" cy="17.285" r="1"/>
                <circle fill="#CC1D32" fill-rule="nonzero" cx="50.265" cy="17.285" r="1"/>
                <circle fill="#CC1D32" fill-rule="nonzero" cx="68.526" cy="8.529" r="1"/>
                <circle fill="#CC1D32" fill-rule="nonzero" cx="77.554" cy="8.529" r="1"/>
                <circle fill="#CC1D32" fill-rule="nonzero" cx="77.554" cy="17.285" r="1"/>
                <circle fill="#CC1D32" fill-rule="nonzero" cx="68.526" cy="17.285" r="1"/>
                <circle fill="#CC1D32" fill-rule="nonzero" cx="86.788" cy="8.529" r="1"/>
                <circle fill="#CC1D32" fill-rule="nonzero" cx="95.815" cy="8.529" r="1"/>
                <circle fill="#CC1D32" fill-rule="nonzero" cx="95.815" cy="17.285" r="1"/>
                <circle fill="#CC1D32" fill-rule="nonzero" cx="86.788" cy="17.285" r="1"/>
                <path d="M40.306 3.74c-.08-.67-.699-1.152-1.39-1.083-.16.015-.315.061-.457.135-.129-.615-.717-1.036-1.362-.974-.12.01-.239.038-.351.082a1.249 1.249 0 0 0-.75-.585 1.29 1.29 0 0 0-.957.103l-.106.065a1.293 1.293 0 0 0-1.763-.255 1.26 1.26 0 0 0-.385.45 1.297 1.297 0 0 0-.968.028 1.24 1.24 0 0 0-.662.686v.065c-.686-.118-1.343.325-1.467.99v.206c-.678-.16-1.361.242-1.529.898a1.282 1.282 0 0 0-.033.412l.279 2.603 12.23-1.213-.274-2.603-.055-.01z" fill="#F9E8D0" fill-rule="nonzero"/>
                <path d="M28.092 7.133c-.072-.67.426-1.271 1.116-1.348h.045c.69-.044 1.29.453 1.356 1.12l1.584 15.002-1.283.124a.417.417 0 0 1-.458-.335L28.11 7.257c0-.043-.011-.076-.017-.124z" fill="#FFF" fill-rule="nonzero"/>
                <path d="M31.764 5.536c.688-.066 1.304.416 1.383 1.083l1.585 15.028-2.511.249-1.612-15.018c-.072-.668.426-1.268 1.115-1.342h.04z" fill="#2F3043" fill-rule="nonzero"/>
                <path d="M34.24 5.287c.69-.07 1.308.414 1.384 1.083l1.585 15.028-2.51.25-1.585-15.03c-.072-.668.427-1.268 1.116-1.342l.01.011z" fill="#FFF" fill-rule="nonzero"/>
                <path d="M36.785 5.038c.332-.035.664.06.923.263.26.203.426.498.46.82l1.59 15.023-2.516.249L35.658 6.37c-.072-.67.427-1.269 1.116-1.342l.011.01z" fill="#2F3043" fill-rule="nonzero"/>
                <path d="m38.14 6.159 1.585 14.996 1.284-.125a.41.41 0 0 0 .373-.422l-.217-4.275-.513-10.331c0-.676-.565-1.223-1.261-1.223a.868.868 0 0 0-.168 0c-.688.097-1.169.71-1.082 1.38z" fill="#FFF" fill-rule="nonzero"/>
                <path d="M45.522 20.516a.275.275 0 0 1-.223-.222c-.15-.63-.767-1.05-1.43-.968-.662.08-1.153.635-1.136 1.282.007.134.037.266.089.39a.26.26 0 0 1-.078.314 1.237 1.237 0 0 0-.254 1.766 1.327 1.327 0 0 0 1.822.247c.106-.08.2-.175.279-.282a.284.284 0 0 1 .312-.092c.437.155.925.072 1.281-.217.357-.29.527-.742.447-1.186a1.273 1.273 0 0 0-.835-.967 1.144 1.144 0 0 0-.274-.065z" fill="#F9E8D0" fill-rule="nonzero"/>
                <path d="M44.948 20.9a.137.137 0 0 1-.118-.119.69.69 0 0 0-.803-.541.683.683 0 0 0-.447.273.645.645 0 0 0-.072.63.138.138 0 0 1-.039.169.663.663 0 0 0-.164.916.71.71 0 0 0 .934.21.653.653 0 0 0 .2-.206.153.153 0 0 1 .157-.05.69.69 0 0 0 .854-.448.663.663 0 0 0-.463-.828h-.056l.017-.006z" fill="#FFC600" fill-rule="nonzero"/>
                <path d="M52.781 22.6a.127.127 0 0 1 0-.152.603.603 0 0 0-.053-.83.65.65 0 0 0-.856-.025.544.544 0 0 0-.123.151.147.147 0 0 1-.15.065.638.638 0 0 0-.77.45.596.596 0 0 0 .068.465.63.63 0 0 0 .389.281c.064.01.13.01.195 0a.15.15 0 0 1 .134.087.642.642 0 0 0 .793.36.614.614 0 0 0 .373-.852z" fill="#F9E8D0" fill-rule="nonzero"/>
                <path d="M52.458 22.502a.074.074 0 0 1 0-.081.32.32 0 0 0-.034-.46.343.343 0 0 0-.513.087.073.073 0 0 1-.078.037.338.338 0 0 0-.259.018c-.08.04-.14.11-.165.193a.316.316 0 0 0 .017.254.332.332 0 0 0 .2.163c.048.011.098.011.145 0a.084.084 0 0 1 .067.043.34.34 0 0 0 .586.091.317.317 0 0 0 .034-.334.09.09 0 0 0 0-.027v.016z" fill="#FFC600" fill-rule="nonzero"/>
                <path d="M47.598 22.432a.112.112 0 0 1-.045-.12.513.513 0 0 0-.364-.58.536.536 0 0 0-.64.278.38.38 0 0 0-.034.157.104.104 0 0 1-.083.102.507.507 0 0 0-.145.895.544.544 0 0 0 .54.058.114.114 0 0 1 .13 0 .542.542 0 0 0 .72-.03.503.503 0 0 0 .021-.7.561.561 0 0 0-.1-.06z" fill="#F9E8D0" fill-rule="nonzero"/>
                <path d="M47.319 22.475a.042.042 0 0 1 0-.06.28.28 0 0 0-.541-.135.226.226 0 0 0 0 .06.06.06 0 0 1-.045.054.277.277 0 0 0-.234.314.29.29 0 0 0 .44.184.063.063 0 0 1 .062 0 .29.29 0 0 0 .396-.027.261.261 0 0 0 0-.38l-.078-.01z" fill="#FFC600" fill-rule="nonzero"/>
                <path d="M49.584 22.14a.118.118 0 0 1-.111-.06.52.52 0 0 0-.647-.22.494.494 0 0 0-.296.599c.018.05.044.098.078.14a.11.11 0 0 1 0 .13.486.486 0 0 0-.067.494.52.52 0 0 0 .96-.023.106.106 0 0 1 .111-.065.51.51 0 0 0 .555-.457.504.504 0 0 0-.471-.538h-.112z" fill="#F9E8D0" fill-rule="nonzero"/>
                <path d="M49.406 22.35a.056.056 0 0 1-.056-.032.277.277 0 0 0-.504.025.253.253 0 0 0 .013.202.22.22 0 0 0 .028.05.053.053 0 0 1 0 .064c-.1.11-.09.279.025.376a.28.28 0 0 0 .388-.024.247.247 0 0 0 .055-.098.067.067 0 0 1 .056-.037.273.273 0 0 0 .195-.07.256.256 0 0 0 .084-.185.274.274 0 0 0-.268-.27h-.016zM100.524 10.347l-4.179-.698-4.179-.703-.854 12.014c.872.502 1.83.846 2.83 1.017a10.31 10.31 0 0 0 3.018-.032l3.347-11.592.017-.006z" fill="#FFC600" fill-rule="nonzero"/>
                <path fill="#FFF" fill-rule="nonzero" d="M101.093 10.677 91.52 9.065l.569-.964 8.804 1.483z"/>
                <path fill="#FFF" fill-rule="nonzero" d="m93.383 7.797 7.655 1.275-.11.622-7.655-1.275z"/>
                <path d="m96.485 8.204.965-5.412c.061-.346 1.584-.838 1.584-.838" stroke="#FFF" stroke-width="1.14" stroke-linecap="round"/>
                <path d="M99.871 17.886h-.82a22.075 22.075 0 0 1-8.146-1.326l-.893-.33.776-4.33.893.33a22.063 22.063 0 0 0 8.151 1.337h.826l-.787 4.319z" fill="#FFF" fill-rule="nonzero"/>
                <path d="m80.131 19.72-.43-2.64a1.666 1.666 0 0 0-.69-1.093 1.765 1.765 0 0 0-1.284-.298l-8.224 1.266c-.939.15-1.578 1.004-1.434 1.916l.435 2.646c.151.912 1.035 1.532 1.975 1.386l8.224-1.267c.94-.146 1.579-1.004 1.428-1.916z" fill="#2F3043" fill-rule="nonzero"/>
                <path d="m78.703 21.636-8.224 1.267c-.94.146-1.824-.474-1.975-1.386l-.218-1.326L79.914 18.4l.217 1.32c.151.912-.488 1.77-1.428 1.916z" fill="#2F3043" fill-rule="nonzero"/>
                <ellipse fill="#FFC600" fill-rule="nonzero" transform="rotate(-9.04 72.74 19.497)" cx="72.741" cy="19.497" rx="1.282" ry="1.246"/>
                <path fill="#EE2737" fill-rule="nonzero" d="m78.038 19.698.683-.106.109.663-.684.106z"/>
                <path fill="#FFF" fill-rule="nonzero" d="m76.243 17.264.683-.106.109.663-.684.105zM74.882 17.474l.683-.106.11.663-.684.106zM76.46 18.589l.684-.106.108.663-.683.105zM75.099 18.794l.683-.106.109.663-.683.105zM76.677 19.908l.683-.105.11.662-.684.106zM75.317 20.118l.683-.105.109.663-.684.105zM69.384 18.32l.684-.106.216 1.32-.683.106zM69.712 20.302l.684-.105.216 1.32-.683.105z"/>
                <path fill="#FFF" fill-rule="nonzero" d="m76.514 18.916.683-.106.054.332-.683.105zM75.153 19.126l.683-.105.055.33-.684.106z"/>
            </g>
            <g transform="rotate(-180 41 57.5)">
                <circle fill="#CADEF8" cx="10" cy="10" r="10"/>
                <g opacity=".8">
                    <path d="M15.5 4h-12v12h12z"/>
                    <path d="M11 8.479v3.106a.5.5 0 0 1-.793.404L8.06 10.438a.5.5 0 0 1 0-.81l2.147-1.554A.5.5 0 0 1 11 8.48z" fill="#000" fill-rule="nonzero"/>
                </g>
            </g>
        </g>
    </g>
</svg>
