<svg width="155" height="168" xmlns="http://www.w3.org/2000/svg" xmlns:xlink="http://www.w3.org/1999/xlink">
    <defs>
        <rect id="a" x="0" y="0" width="155" height="168" rx="10"/>
    </defs>
    <g fill="none" fill-rule="evenodd">
        <mask id="b" fill="#fff">
            <use xlink:href="#a"/>
        </mask>
        <g mask="url(#b)">
            <path d="M39.997 77.439a1.97 1.97 0 0 0-.692-1.567l-3.796-3.355a1.734 1.734 0 0 0-1.182-.46c-1.83 0-3.642-.038-5.492-.055a1.706 1.706 0 0 0-1.32.536c-.35.367-.535.87-.513 1.388v14.169c-.029.822.468 1.562 1.214 1.81.209.065.426.096.643.093h9.308c.497.025.98-.173 1.33-.545.348-.372.53-.883.5-1.405v-10.61z" fill="#40425B" fill-rule="nonzero"/>
            <path d="M32 81a1 1 0 1 1 0 2 1 1 0 0 1 0-2zM34.96 83a1.005 1.005 0 0 1-.697-.32.98.98 0 0 1-.262-.712.986.986 0 0 1 .517-.845 1.01 1.01 0 0 1 1 .02c.305.182.489.511.482.864a.981.981 0 0 1-.305.716 1.006 1.006 0 0 1-.735.276z" fill="#40425B" fill-rule="nonzero"/>
            <path d="M32 83c0 .552.672 1 1.5 1s1.5-.448 1.5-1M64 77.439a1.996 1.996 0 0 0-.692-1.567c-1.271-1.115-2.534-2.235-3.8-3.355a1.726 1.726 0 0 0-1.178-.46c-1.833 0-3.642-.038-5.495-.055a1.706 1.706 0 0 0-1.32.536c-.35.367-.535.87-.513 1.388v14.169c-.026.82.47 1.56 1.214 1.809.207.065.423.097.64.094h9.306c.497.026.982-.172 1.332-.544.35-.372.532-.884.501-1.406 0-3.537.002-7.073.005-10.61z" fill="#40425B" fill-rule="nonzero"/>
            <path d="M55 79a1 1 0 1 1 0 2 1 1 0 0 1 0-2zM59.96 83a1.005 1.005 0 0 1-.697-.32.98.98 0 0 1-.262-.712.986.986 0 0 1 .517-.845 1.01 1.01 0 0 1 1 .02c.305.182.489.511.482.864a.981.981 0 0 1-.305.716 1.006 1.006 0 0 1-.735.276zM56.002 83c-.031.35.247.683.724.864a2.275 2.275 0 0 0 1.548 0c.477-.181.755-.514.724-.864M87.997 77.439a1.983 1.983 0 0 0-.692-1.567l-3.796-3.355a1.734 1.734 0 0 0-1.182-.46c-1.833 0-3.663-.038-5.496-.055a1.706 1.706 0 0 0-1.318.538c-.348.366-.533.87-.511 1.386v14.169c-.029.822.468 1.562 1.214 1.81.207.065.423.096.64.093h9.308c.496.025.98-.173 1.33-.545.35-.372.532-.883.503-1.405v-10.61z" fill="#40425B" fill-rule="nonzero"/>
            <path d="M79 81a1 1 0 0 1 1 1 1.04 1.04 0 0 1-1 1 1.03 1.03 0 0 1-1-1.025A1 1 0 0 1 79 81zM83.96 83a1.005 1.005 0 0 1-.697-.32.98.98 0 0 1-.262-.712.986.986 0 0 1 .517-.845 1.01 1.01 0 0 1 1 .02c.305.182.489.511.482.864a.981.981 0 0 1-.305.716 1.006 1.006 0 0 1-.735.276zM80 83c0 .357.286.687.75.866a2.166 2.166 0 0 0 1.5 0c.464-.179.75-.509.75-.866M110.997 77.439a1.97 1.97 0 0 0-.692-1.567l-3.796-3.355a1.734 1.734 0 0 0-1.182-.46c-1.83 0-3.642-.038-5.492-.055a1.706 1.706 0 0 0-1.32.536c-.35.367-.535.87-.513 1.388v14.169c-.029.822.468 1.562 1.214 1.81.209.065.426.096.643.093h9.308c.497.025.98-.173 1.33-.545.348-.372.53-.883.5-1.405v-10.61z" fill="#40425B" fill-rule="nonzero"/>
            <path d="M103 81a1 1 0 1 1 0 2 1 1 0 0 1 0-2zM106.96 83a1.005 1.005 0 0 1-.697-.32.98.98 0 0 1-.262-.712.986.986 0 0 1 .517-.845 1.01 1.01 0 0 1 1 .02c.305.182.489.511.482.864a.981.981 0 0 1-.305.716 1.006 1.006 0 0 1-.735.276z" fill="#40425B" fill-rule="nonzero"/>
            <path d="M104 83c0 .552.672 1 1.5 1s1.5-.448 1.5-1M135 77.439a1.996 1.996 0 0 0-.692-1.567c-1.271-1.115-2.534-2.235-3.8-3.355a1.726 1.726 0 0 0-1.178-.46c-1.833 0-3.662-.038-5.495-.055a1.706 1.706 0 0 0-1.32.536c-.35.367-.535.87-.513 1.388v14.169c-.026.82.47 1.56 1.214 1.809.207.065.423.097.64.094h9.306c.497.026.982-.172 1.332-.544.35-.372.532-.884.501-1.406 0-3.537.002-7.073.005-10.61z" fill="#40425B" fill-rule="nonzero"/>
            <path d="M127 81a1 1 0 1 1 0 2 1 1 0 0 1 0-2zM129.96 83a1.005 1.005 0 0 1-.697-.32.98.98 0 0 1-.262-.712.986.986 0 0 1 .517-.845 1.01 1.01 0 0 1 1 .02c.305.182.489.511.482.864a.981.981 0 0 1-.305.716 1.006 1.006 0 0 1-.735.276z" fill="#40425B" fill-rule="nonzero"/>
            <path d="M128.002 83c-.031.35.247.683.724.864a2.275 2.275 0 0 0 1.548 0c.477-.181.755-.514.724-.864M39.98 103.44a1.968 1.968 0 0 0-.69-1.566l-3.792-3.357a1.73 1.73 0 0 0-1.18-.46l-5.486-.055c-.49-.024-.967.17-1.315.534A1.899 1.899 0 0 0 27 99.919v14.174c-.028.822.468 1.563 1.213 1.81.209.065.425.097.643.094h9.296c.499.031.986-.164 1.338-.536.353-.372.537-.886.506-1.41-.011-3.533-.017-7.07-.017-10.61z" fill="#40425B" fill-rule="nonzero"/>
            <path d="M32 105a1 1 0 1 1 0 2 1 1 0 0 1 0-2zM34.96 107a.997.997 0 0 1-.96-1.025.998.998 0 0 1 1.02-.975c.552.011.99.465.98 1.015a.992.992 0 0 1-.31.71 1.003 1.003 0 0 1-.73.274zM32 108c0 .552.672 1 1.5 1s1.5-.448 1.5-1M63.993 103.438a1.988 1.988 0 0 0-.692-1.566l-3.798-3.355a1.724 1.724 0 0 0-1.177-.46l-5.492-.055c-.49-.024-.969.17-1.317.534a1.896 1.896 0 0 0-.516 1.382v14.176c-.025.821.47 1.56 1.214 1.81.207.065.423.096.639.093h9.302c.498.03.984-.165 1.336-.537a1.89 1.89 0 0 0 .505-1.409 4640.82 4640.82 0 0 1-.004-10.613z" fill="#40425B" fill-rule="nonzero"/>
            <path d="M55 105a1 1 0 1 1 0 2 1 1 0 0 1 0-2zM59.96 107a.997.997 0 0 1-.96-1.025.998.998 0 0 1 1.02-.975c.552.011.99.465.98 1.015a.992.992 0 0 1-.31.71 1.003 1.003 0 0 1-.73.274zM56 108c.045.561.703 1 1.5 1s1.455-.439 1.5-1" fill="#40425B" fill-rule="nonzero"/>
            <g transform="translate(71 92)">
                <path d="M18.982 12.634c.019-.743-.278-1.453-.802-1.917L13.781 6.61a1.951 1.951 0 0 0-1.37-.562L6.042 5.98a1.925 1.925 0 0 0-1.523.655 2.397 2.397 0 0 0-.597 1.69v17.342c-.033 1.006.543 1.913 1.407 2.215.24.08.49.118.741.114h10.788c.577.037 1.141-.202 1.55-.657a2.396 2.396 0 0 0 .588-1.724c-.009-4.322-.014-8.649-.014-12.98z" fill="#FFC600" fill-rule="nonzero"/>
                <path d="M8.897 13.843c.583 0 1.055.563 1.055 1.258-.016.687-.48 1.239-1.055 1.259-.583 0-1.056-.564-1.056-1.259s.473-1.258 1.056-1.258zM14.585 16.359c-.579-.028-1.03-.603-1.013-1.29.007-.447.216-.855.546-1.07a.914.914 0 0 1 1.055.024c.323.231.517.65.51 1.097a1.37 1.37 0 0 1-.328.895.968.968 0 0 1-.77.344zM10.857 18.247c0 .337.288.649.754.818a2.311 2.311 0 0 0 1.508 0c.467-.169.754-.48.754-.818" fill="#2F3043" fill-rule="nonzero"/>
                <path d="m1.206 5.684 2.59 3.754C5.46 7.6 7.614 6.38 9.951 5.947c-.65-2.048-1.297-4.374-1.297-4.374l-1.229 3.25-3.115-2.441.155 4.158-3.26-.856z" fill="#F9E8D0" fill-rule="nonzero"/>
                <circle fill="#F9E8D0" fill-rule="nonzero" cx=".603" cy="5.034" r="1"/>
                <circle fill="#F9E8D0" fill-rule="nonzero" cx="9.048" cy=".315" r="1"/>
                <circle fill="#F9E8D0" fill-rule="nonzero" cx="4.222" cy="1.573" r="1"/>
            </g>
            <path d="M110.98 103.44a1.968 1.968 0 0 0-.69-1.566l-3.792-3.357a1.73 1.73 0 0 0-1.18-.46l-5.486-.055c-.49-.024-.967.17-1.315.534A1.899 1.899 0 0 0 98 99.919v14.174c-.028.822.468 1.563 1.213 1.81.209.065.425.097.643.094h9.296c.499.031.986-.164 1.338-.536.353-.372.537-.886.506-1.41-.011-3.533-.017-7.07-.017-10.61z" fill="#40425B" fill-rule="nonzero"/>
            <path d="M103 105a1 1 0 1 1 0 2 1 1 0 0 1 0-2zM106.96 107a.997.997 0 0 1-.96-1.025.994.994 0 0 1 .518-.852 1.004 1.004 0 0 1 1 .02c.305.184.489.516.482.872a.992.992 0 0 1-.31.71 1.003 1.003 0 0 1-.73.274zM104 108c0 .552.672 1 1.5 1s1.5-.448 1.5-1M134.993 103.439a1.988 1.988 0 0 0-.692-1.567l-3.798-3.354a1.724 1.724 0 0 0-1.177-.46l-5.476-.055a1.703 1.703 0 0 0-1.327.527c-.352.365-.542.869-.522 1.389v14.175c-.025.821.47 1.56 1.214 1.81.207.065.423.096.639.093h9.302c.498.03.984-.165 1.336-.537a1.89 1.89 0 0 0 .505-1.408c-.006-3.537-.007-7.074-.004-10.613z" fill="#40425B" fill-rule="nonzero"/>
            <path d="M127 105a1 1 0 1 1 0 2 1 1 0 0 1 0-2zM129.96 107a.997.997 0 0 1-.96-1.025.994.994 0 0 1 .518-.852 1.004 1.004 0 0 1 1 .02c.305.184.489.516.482.872a.992.992 0 0 1-.31.71 1.003 1.003 0 0 1-.73.274zM128 108c.045.561.703 1 1.5 1s1.455-.439 1.5-1M39.98 129.438a1.967 1.967 0 0 0-.69-1.566l-3.792-3.36a1.75 1.75 0 0 0-1.18-.455l-5.485-.055c-.492-.024-.97.17-1.319.536-.348.367-.534.87-.512 1.388v14.168c-.03.821.467 1.561 1.212 1.805.209.067.425.1.643.098h9.297c.498.03.984-.165 1.336-.537.352-.372.537-.884.507-1.409-.01-3.536-.016-7.073-.016-10.613z" fill="#40425B" fill-rule="nonzero"/>
            <path d="M32 129a1 1 0 1 1 0 2 1 1 0 0 1 0-2zM34.96 131a.997.997 0 0 1-.96-1.025.998.998 0 0 1 1.02-.975c.552.011.99.465.98 1.015a.992.992 0 0 1-.31.71 1.003 1.003 0 0 1-.73.274zM32 133c0 .552.672 1 1.5 1s1.5-.448 1.5-1M63.993 129.438a1.988 1.988 0 0 0-.692-1.566l-3.798-3.36a1.74 1.74 0 0 0-1.177-.455l-5.492-.055a1.704 1.704 0 0 0-1.32.536c-.348.367-.534.87-.512 1.388v14.168c-.027.82.47 1.559 1.213 1.805.207.067.423.1.64.098h9.301c.498.03.984-.165 1.336-.537a1.89 1.89 0 0 0 .505-1.409c-.006-3.536-.007-7.073-.004-10.613z" fill="#40425B" fill-rule="nonzero"/>
            <path d="M55 129a1 1 0 1 1 0 2 1 1 0 0 1 0-2zM59.96 131a.997.997 0 0 1-.96-1.025.994.994 0 0 1 .518-.852 1.004 1.004 0 0 1 1 .02c.305.184.489.516.482.872a.992.992 0 0 1-.31.71 1.003 1.003 0 0 1-.73.274zM56 133c.045.561.703 1 1.5 1s1.455-.439 1.5-1M87.985 129.438a1.98 1.98 0 0 0-.692-1.566l-3.792-3.36a1.75 1.75 0 0 0-1.18-.455l-5.492-.055a1.704 1.704 0 0 0-1.316.538c-.348.366-.533.869-.511 1.386v14.168c-.03.821.467 1.561 1.213 1.805.207.067.422.1.639.098h9.3a1.7 1.7 0 0 0 1.336-.537c.352-.372.537-.884.507-1.409-.008-3.536-.012-7.074-.012-10.613z" fill="#40425B" fill-rule="nonzero"/>
            <path d="M79 129a1 1 0 1 1 0 2 1 1 0 0 1 0-2zM83.96 131a.997.997 0 0 1-.96-1.025.994.994 0 0 1 .518-.852 1.004 1.004 0 0 1 1 .02c.305.184.489.516.482.872a.992.992 0 0 1-.31.71 1.003 1.003 0 0 1-.73.274zM80 133c0 .552.672 1 1.5 1s1.5-.448 1.5-1M110.969 129.433a1.965 1.965 0 0 0-.69-1.565l-3.789-3.356a1.748 1.748 0 0 0-1.179-.455l-5.48-.055c-.491-.024-.97.17-1.317.536-.349.366-.534.87-.512 1.386V140.08c-.03.82.467 1.56 1.211 1.803.211.074.432.113.654.115h9.288c.498.03.984-.165 1.335-.537.352-.37.537-.883.507-1.407-.019-3.544-.028-7.084-.028-10.62z" fill="#40425B" fill-rule="nonzero"/>
            <path d="M103 129a1 1 0 1 1 0 2 1 1 0 0 1 0-2zM106.96 131a.997.997 0 0 1-.96-1.025.994.994 0 0 1 .518-.852 1.004 1.004 0 0 1 1 .02c.305.184.489.516.482.872a.992.992 0 0 1-.31.71 1.003 1.003 0 0 1-.73.274zM104 133c0 .552.672 1 1.5 1s1.5-.448 1.5-1M134.997 129.433a1.984 1.984 0 0 0-.693-1.565l-3.804-3.356a1.745 1.745 0 0 0-1.178-.455l-5.485-.055a1.71 1.71 0 0 0-1.322.536c-.35.366-.535.87-.513 1.386v14.155c-.027.82.47 1.557 1.215 1.803.2.07.409.11.62.115h9.317a1.7 1.7 0 0 0 1.337-.537c.353-.371.537-.883.506-1.407-.003-3.544-.003-7.084 0-10.62z" fill="#40425B" fill-rule="nonzero"/>
            <path d="M127 129a1 1 0 1 1 0 2 1 1 0 0 1 0-2zM129.96 131a.997.997 0 0 1-.96-1.025.994.994 0 0 1 .518-.852 1.004 1.004 0 0 1 1 .02c.305.184.489.516.482.872a.992.992 0 0 1-.31.71 1.003 1.003 0 0 1-.73.274zM128 133c.045.561.703 1 1.5 1s1.455-.439 1.5-1" fill="#40425B" fill-rule="nonzero"/>
        </g>
    </g>
</svg>
