<svg width="155" height="168" xmlns="http://www.w3.org/2000/svg">
    <defs>
        <rect id="a" x="0" y="0" width="155" height="168" rx="10"/>
    </defs>
    <g fill-rule="nonzero" fill="none">
        <path d="M35.496 94.6c0-.633.008-1.266-.003-1.898-.004-.271.092-.394.375-.392 1.253.007 2.505.006 3.758 0 .267-.001.392.087.39.375-.01 1.25-.01 2.5-.001 3.75.002.27-.085.39-.372.389-1.252-.008-2.505-.01-3.758.001-.316.003-.398-.136-.392-.42.01-.601.003-1.204.004-1.805m8.737 2.22c-.641 0-1.283-.009-1.924.004-.254.005-.358-.084-.356-.37.009-1.264.008-2.529.001-3.794-.002-.262.096-.354.33-.35.656.012 1.313-.017 1.967.023 1.034.063 1.93.857 2.115 1.958.116.69.067 1.41.108 2.116.02.336-.116.425-.402.418-.613-.017-1.226-.005-1.839-.005m-4.224 11.627c0 .699-.01 1.398.004 2.097.007.323-.08.474-.415.47a195.59 195.59 0 0 0-3.709 0c-.309.003-.4-.138-.398-.44.008-1.431.009-2.862 0-4.293 0-.318.122-.426.417-.423 1.22.01 2.442.014 3.662-.003.357-.005.452.149.444.494-.017.699-.005 1.398-.005 2.097m-7.106-.008c0 .716-.008 1.432.004 2.148.004.315-.1.436-.378.429-.586-.016-1.172.007-1.757-.01-1.327-.041-2.315-1.14-2.376-2.66-.027-.682 0-1.367-.01-2.05-.004-.305.091-.441.374-.44 1.256.01 2.514.012 3.77 0 .283-.003.38.128.375.434-.009.716-.002 1.432-.002 2.149m9.055.01c0-.731.006-1.463-.003-2.195-.004-.292.096-.4.354-.398 1.268.01 2.536.009 3.804 0 .249 0 .366.093.36.394-.011.715.02 1.432-.013 2.146-.068 1.45-1.063 2.555-2.333 2.605-.598.023-1.197-.009-1.795.014-.317.012-.385-.151-.379-.469.013-.699.005-1.398.005-2.097m-4.53-4.539c-2.84 0-5.679 0-8.518.002-.28 0-.528.025-.526-.407.011-2.892-.017-5.783.02-8.674.018-1.437 1.077-2.461 2.471-2.505.58-.018 1.16.015 1.739-.014.38-.018.48.137.476.509-.015 1.568-.008 3.138-.006 4.706.001 1.17.333 1.518 1.452 1.518h11.327c.6 0 .6.002.601.638 0 1.215-.02 2.43.011 3.645.013.472-.125.596-.575.593-2.824-.02-5.648-.01-8.472-.01m13.16 15.49c2.23-.003 4.024-1.251 4.676-3.295.177-.553.244-1.164.245-1.748.015-8.465.017-16.93.006-25.395-.004-3.024-2.024-5.03-5.026-5.031-9.147-.003-18.294.004-27.44-.006-1.658-.002-2.992.622-4.05 1.89-2.888 3.46-5.782 6.914-8.677 10.367-.783.933-1.172 1.997-1.181 3.22-.04 5-.103 10-.142 14.999-.022 2.923 2.043 4.995 4.972 4.999" fill="#2E304A"/>
        <path d="M37.428 103.91c2.825 0 5.649-.01 8.473.01.45.003.588-.12.575-.593-.032-1.214-.01-2.43-.01-3.645 0-.636-.002-.637-.602-.637H34.537c-1.119 0-1.45-.348-1.452-1.519-.001-1.569-.01-3.137.006-4.706.004-.372-.095-.527-.476-.508-.579.028-1.16-.005-1.739.013-1.394.044-2.453 1.068-2.472 2.505-.036 2.891-.007 5.783-.02 8.674-.001.432.247.407.527.407 2.84-.002 5.679-.001 8.518-.001m4.53 4.538c0 .7.009 1.399-.005 2.097-.005.318.062.481.379.47.598-.024 1.197.008 1.795-.015 1.27-.05 2.265-1.155 2.333-2.605.033-.714.002-1.43.014-2.145.005-.302-.112-.395-.36-.394a282.57 282.57 0 0 1-3.805-.001c-.258-.002-.357.107-.354.4.009.73.003 1.462.003 2.193m-9.055-.01c0-.717-.007-1.433.003-2.149.004-.307-.093-.436-.376-.434-1.257.012-2.513.01-3.77 0-.283-.002-.378.135-.374.44.01.683-.017 1.368.01 2.05.061 1.52 1.049 2.62 2.376 2.66.585.017 1.171-.006 1.757.01.277.007.382-.114.378-.429-.012-.715-.004-1.432-.004-2.148m7.106.008c0-.699-.012-1.398.005-2.097.008-.346-.086-.499-.443-.494-1.221.017-2.442.013-3.663.003-.295-.003-.418.105-.416.423.008 1.43.007 2.862 0 4.292-.003.303.088.444.397.441a188.71 188.71 0 0 1 3.71 0c.335.004.422-.147.415-.47-.015-.7-.005-1.398-.005-2.098" fill="#FFC600"/>
        <path d="M44.234 96.82c.613 0 1.226-.011 1.84.005.286.007.42-.082.401-.418-.042-.705.008-1.426-.108-2.116-.186-1.1-1.08-1.895-2.115-1.958-.654-.04-1.311-.01-1.967-.023-.234-.004-.332.088-.33.35.007 1.265.008 2.53-.001 3.795-.002.285.103.374.356.37.64-.014 1.283-.005 1.924-.005m-8.737-2.22c0 .601.008 1.204-.004 1.805-.006.284.077.423.392.42 1.252-.012 2.505-.01 3.758-.001.286.001.374-.119.372-.39-.008-1.25-.01-2.5 0-3.749.003-.288-.122-.376-.389-.375a374.5 374.5 0 0 1-3.758 0c-.283-.002-.38.12-.375.392.01.632.004 1.265.004 1.898m88.518-29.227c.004-2.754-1.029-4.975-3.13-6.738a9112.86 9112.86 0 0 1-17.182-14.432c-1.55-1.305-3.31-1.95-5.336-1.965-8.289-.07-16.573-.171-24.861-.238-4.843-.038-8.28 3.399-8.284 8.273-.012 10.152-.004 20.308-.004 30.46 0 10.151-.008 20.307.004 30.46.004 3.708 2.074 6.695 5.46 7.779.917.294 1.927.403 2.898.407 14.028.024 28.056.027 42.089.011 5.01-.007 8.334-3.366 8.338-8.365.004-15.216-.007-30.432.008-45.652" fill="#FFC600"/>
        <path d="M84.932 72.315c1.942 0 3.534 1.725 3.545 3.842.01 2.068-1.622 3.875-3.523 3.898-1.932.023-3.611-1.814-3.584-3.921.026-2.128 1.604-3.82 3.562-3.819m19.255 7.74c-1.88-.013-3.453-1.816-3.433-3.935.02-2.148 1.58-3.812 3.567-3.805 2.045.007 3.562 1.7 3.54 3.954-.02 2.137-1.634 3.8-3.674 3.786m-14.418 5.16c0 3.206 2.46 5.805 5.492 5.805 3.034 0 5.493-2.599 5.493-5.805" fill="#2F3043"/>
        <path d="M135 108.113c0-6.234-4.918-11.288-10.984-11.288-6.067 0-10.985 5.054-10.985 11.288s4.918 11.287 10.985 11.287c6.066 0 10.984-5.053 10.984-11.287" fill="#FFF"/>
        <path d="M122.664 112.305c-.654 0-1.27-.266-1.732-.75l-2.344-2.45a1.428 1.428 0 0 1 0-1.955 1.284 1.284 0 0 1 1.872 0l2.204 2.302 4.906-5.126a1.283 1.283 0 0 1 1.873 0c.517.54.517 1.416 0 1.956l-5.047 5.273a2.38 2.38 0 0 1-1.732.75" fill="#EE2737"/>
        <path d="M41.483 90.375a.873.873 0 0 1-.847-.686c-1.757-7.8.55-12.836 2.795-15.687 3.057-3.883 7.977-6.202 13.16-6.202.481 0 .87.395.87.882 0 .486-.389.88-.87.88-4.658 0-9.07 2.071-11.8 5.54-2.877 3.653-3.728 8.562-2.46 14.195a.881.881 0 0 1-.848 1.078" fill="#2E3048"/>
        <path d="m61.14 68.781-5.022 2.836c-.264.15-.595-.037-.595-.336V65.61c0-.299.33-.486.595-.337l5.022 2.837a.384.384 0 0 1 0 .672" fill="#2E3048"/>
    </g>
</svg>
