<svg width="245" height="204" xmlns="http://www.w3.org/2000/svg" xmlns:xlink="http://www.w3.org/1999/xlink">
    <defs>
        <rect id="a" x="0" y="0" width="245" height="204" rx="10"/>
    </defs>
    <g fill="none" fill-rule="evenodd">
        <mask id="b" fill="#fff">
            <use xlink:href="#a"/>
        </mask>
        <g mask="url(#b)">
            <g transform="translate(5 86)">
                <rect fill="#EE2737" fill-rule="nonzero" x="16.358" y=".789" width="107.119" height="51.893" rx="8.39"/>
                <rect fill="#EE2737" fill-rule="nonzero" transform="rotate(180 143.734 26.736)" x="90.174" y=".789" width="107.119" height="51.893" rx="8.39"/>
                <path d="M8.523 65.906h196.081v7.34a3.577 3.577 0 0 1-3.582 3.58H12.105a3.58 3.58 0 0 1-3.582-3.58v-7.34z" fill="#383A49" fill-rule="nonzero"/>
                <path fill="#2F3043" fill-rule="nonzero" d="M4.179 16.848h12.179v37.009H4.179z"/>
                <path fill="#2F3043" fill-rule="nonzero" d="M201.454 39.78v19.931H10.03V39.78z"/>
                <rect fill="#EE2737" fill-rule="nonzero" y="16.848" width="12.179" height="39.853" rx="4.78"/>
                <path d="M133.204 59.207v.917a6.518 6.518 0 0 1-6.522 6.516H6.521A6.518 6.518 0 0 1 0 60.124V52.71h126.673a6.518 6.518 0 0 1 6.521 6.515l.01-.018z" fill="#EE2737" fill-rule="nonzero"/>
                <rect fill="#EE2737" fill-rule="nonzero" x="14.218" y="39.78" width="91.304" height="11.645" rx="3.05"/>
                <path d="M15.026 40.615c8.367-3.533 37.592-5.625 43.305-5.625 5.713 0 32.357.918 46.841 5.625" fill="#FC4F68" fill-rule="nonzero"/>
                <path fill="#2F3043" fill-rule="nonzero" d="M209.472 53.866h-12.179V16.857h12.18z"/>
                <rect fill="#EE2737" fill-rule="nonzero" transform="rotate(180 207.552 36.784)" x="201.463" y="16.857" width="12.179" height="39.853" rx="4.78"/>
                <path d="M213.651 52.682v7.442a6.518 6.518 0 0 1-6.521 6.516H86.968a6.518 6.518 0 0 1-6.52-6.516v-.917a6.518 6.518 0 0 1 6.52-6.516h126.683v-.009z" fill="#EE2737" fill-rule="nonzero"/>
                <rect fill="#EE2737" fill-rule="nonzero" transform="rotate(180 153.772 45.602)" x="108.121" y="39.78" width="91.304" height="11.645" rx="3.05"/>
                <path d="M198.625 40.615c-8.367-3.533-37.592-5.625-43.314-5.625-5.722 0-32.357.918-46.841 5.625" fill="#FC4F68" fill-rule="nonzero"/>
                <ellipse fill="#CC1D32" fill-rule="nonzero" cx="52.683" cy="14.462" rx="1.626" ry="1.624"/>
                <ellipse fill="#CC1D32" fill-rule="nonzero" cx="67.543" cy="14.462" rx="1.626" ry="1.624"/>
                <ellipse fill="#CC1D32" fill-rule="nonzero" cx="67.543" cy="29.31" rx="1.626" ry="1.624"/>
                <ellipse fill="#CC1D32" fill-rule="nonzero" cx="52.683" cy="29.31" rx="1.626" ry="1.624"/>
                <ellipse fill="#CC1D32" fill-rule="nonzero" cx="82.744" cy="14.462" rx="1.626" ry="1.624"/>
                <ellipse fill="#CC1D32" fill-rule="nonzero" cx="97.604" cy="14.462" rx="1.626" ry="1.624"/>
                <ellipse fill="#CC1D32" fill-rule="nonzero" cx="97.604" cy="29.31" rx="1.626" ry="1.624"/>
                <ellipse fill="#CC1D32" fill-rule="nonzero" cx="82.744" cy="29.31" rx="1.626" ry="1.624"/>
                <ellipse fill="#CC1D32" fill-rule="nonzero" cx="112.805" cy="14.462" rx="1.626" ry="1.624"/>
                <ellipse fill="#CC1D32" fill-rule="nonzero" cx="127.665" cy="14.462" rx="1.626" ry="1.624"/>
                <ellipse fill="#CC1D32" fill-rule="nonzero" cx="127.665" cy="29.31" rx="1.626" ry="1.624"/>
                <ellipse fill="#CC1D32" fill-rule="nonzero" cx="112.805" cy="29.31" rx="1.626" ry="1.624"/>
                <ellipse fill="#CC1D32" fill-rule="nonzero" cx="142.866" cy="14.462" rx="1.626" ry="1.624"/>
                <ellipse fill="#CC1D32" fill-rule="nonzero" cx="157.726" cy="14.462" rx="1.626" ry="1.624"/>
                <ellipse fill="#CC1D32" fill-rule="nonzero" cx="157.726" cy="29.31" rx="1.626" ry="1.624"/>
                <ellipse fill="#CC1D32" fill-rule="nonzero" cx="142.866" cy="29.31" rx="1.626" ry="1.624"/>
                <path d="M66.35 6.34a2.084 2.084 0 0 0-3.04-1.605 2.075 2.075 0 0 0-2.242-1.652 2.05 2.05 0 0 0-.579.138 2.066 2.066 0 0 0-2.81-.817l-.175.11a2.086 2.086 0 0 0-2.902-.43 2.12 2.12 0 0 0-.634.76 2.077 2.077 0 0 0-2.681 1.212v.11c-1.131-.2-2.211.55-2.416 1.68v.348a2.085 2.085 0 0 0-2.517 1.523 2.237 2.237 0 0 0-.055.698l.46 4.414 20.132-2.056-.45-4.414-.092-.018z" fill="#F9E8D0" fill-rule="nonzero"/>
                <path d="M46.244 12.095a2.083 2.083 0 0 1 1.837-2.285h.074a2.103 2.103 0 0 1 2.231 1.9l2.609 25.436-2.113.211a.689.689 0 0 1-.753-.569l-3.857-24.482c0-.074-.019-.129-.028-.211z" fill="#FFF" fill-rule="nonzero"/>
                <path d="M52.288 9.388a2.084 2.084 0 0 1 2.277 1.835l2.609 25.483-4.133.422-2.655-25.465a2.074 2.074 0 0 1 1.837-2.275h.065z" fill="#2F3043" fill-rule="nonzero"/>
                <path d="M56.366 8.965a2.075 2.075 0 0 1 2.277 1.836l2.609 25.483-4.133.422-2.609-25.483a2.074 2.074 0 0 1 1.837-2.276l.019.018z" fill="#FFF" fill-rule="nonzero"/>
                <path d="M60.554 8.543a2.068 2.068 0 0 1 2.278 1.836l2.617 25.473-4.142.423L58.698 10.8a2.074 2.074 0 0 1 1.837-2.276l.019.018z" fill="#2F3043" fill-rule="nonzero"/>
                <path d="m62.786 10.443 2.608 25.428 2.112-.211a.688.688 0 0 0 .616-.716l-.358-7.25-.845-17.517c0-1.146-.93-2.074-2.076-2.074a1.388 1.388 0 0 0-.276 0 2.102 2.102 0 0 0-1.781 2.34z" fill="#FFF" fill-rule="nonzero"/>
                <path d="M74.937 34.788a.459.459 0 0 1-.368-.376 2.14 2.14 0 0 0-4.225.532c.012.227.062.45.147.66a.45.45 0 0 1-.128.533 2.138 2.138 0 0 0-.418 2.996 2.142 2.142 0 0 0 2.999.418c.175-.136.33-.297.459-.478a.46.46 0 0 1 .514-.156 2.143 2.143 0 0 0 2.844-2.378 2.14 2.14 0 0 0-1.824-1.751z" fill="#F9E8D0" fill-rule="nonzero"/>
                <path d="M73.99 35.44a.23.23 0 0 1-.192-.202 1.139 1.139 0 0 0-1.323-.918 1.12 1.12 0 0 0-.854 1.532.238.238 0 0 1-.064.285 1.146 1.146 0 0 0 1.267 1.909c.135-.09.248-.21.33-.35a.248.248 0 0 1 .258-.082 1.13 1.13 0 0 0 .643-2.165h-.092l.028-.01z" fill="#FFC600" fill-rule="nonzero"/>
                <path d="M86.886 38.32a.22.22 0 0 1 0-.256 1.045 1.045 0 0 0-1.497-1.45.918.918 0 0 0-.202.257.239.239 0 0 1-.248.11 1.047 1.047 0 0 0-1.268.762 1.036 1.036 0 0 0 .753 1.266.974.974 0 0 0 .322 0c.096.003.181.06.22.147a1.047 1.047 0 1 0 1.92-.835z" fill="#F9E8D0" fill-rule="nonzero"/>
                <path d="M86.353 38.156a.128.128 0 0 1 0-.138.553.553 0 1 0-.9-.633.12.12 0 0 1-.129.064.542.542 0 0 0-.698.358.55.55 0 0 0 .359.707c.078.018.16.018.238 0a.138.138 0 0 1 .11.073.55.55 0 1 0 1.02-.413.156.156 0 0 0 0-.046v.028z" fill="#FFC600" fill-rule="nonzero"/>
                <path d="M78.353 38.036a.193.193 0 0 1-.073-.201.872.872 0 0 0-1.653-.514.66.66 0 0 0-.055.266.174.174 0 0 1-.138.174.872.872 0 1 0 .652 1.615.184.184 0 0 1 .211 0 .873.873 0 0 0 1.222-1.239.919.919 0 0 0-.166-.1z" fill="#F9E8D0" fill-rule="nonzero"/>
                <path d="M77.894 38.11a.073.073 0 0 1 0-.101.468.468 0 0 0-.34-.56.46.46 0 0 0-.55.33.394.394 0 0 0 0 .101.101.101 0 0 1-.074.092.468.468 0 0 0-.386.532.478.478 0 0 0 .542.386.515.515 0 0 0 .184-.074.101.101 0 0 1 .1 0 .469.469 0 0 0 .653-.045.45.45 0 0 0 0-.643l-.129-.018z" fill="#FFC600" fill-rule="nonzero"/>
                <path d="M81.623 37.54a.193.193 0 0 1-.184-.1.845.845 0 0 0-1.552.642c.03.086.074.167.129.239a.193.193 0 0 1 0 .22.844.844 0 1 0 1.34 1.028.817.817 0 0 0 .13-.23.175.175 0 0 1 .183-.11.848.848 0 1 0 .138-1.688h-.184z" fill="#F9E8D0" fill-rule="nonzero"/>
                <path d="M81.33 37.899a.092.092 0 0 1-.093-.055.45.45 0 0 0-.829.042.44.44 0 0 0 .021.343c.012.03.027.057.046.083a.092.092 0 0 1 0 .11.452.452 0 1 0 .772.431.11.11 0 0 1 .091-.064.441.441 0 0 0 .46-.431.459.459 0 0 0-.441-.46h-.028zM165.478 17.545l-6.88-1.183-6.878-1.193-1.406 20.371a13.849 13.849 0 0 0 4.657 1.726c1.65.233 3.325.214 4.969-.055l5.51-19.656.028-.01z" fill="#FFC600" fill-rule="nonzero"/>
                <path fill="#FFF" fill-rule="nonzero" d="m166.415 18.105-15.76-2.734.936-1.634 14.493 2.515z"/>
                <path fill="#FFF" fill-rule="nonzero" d="m153.722 13.221 12.603 2.162-.181 1.054-12.603-2.162z"/>
                <path d="m158.828 13.912 1.59-9.177c.1-.587 2.608-1.422 2.608-1.422" stroke="#FFF" stroke-width="1.14" stroke-linecap="round"/>
                <path d="M164.403 30.328h-1.35a35.38 35.38 0 0 1-13.41-2.248l-1.469-.56 1.277-7.34 1.47.559a35.36 35.36 0 0 0 13.418 2.266h1.36l-1.296 7.323z" fill="#FFF" fill-rule="nonzero"/>
                <path d="m131.908 33.44-.707-4.48a2.835 2.835 0 0 0-3.251-2.357l-13.538 2.147a2.854 2.854 0 0 0-2.36 3.248l.716 4.488a2.838 2.838 0 0 0 3.251 2.349l13.538-2.147a2.836 2.836 0 0 0 2.351-3.249z" fill="#2F3043" fill-rule="nonzero"/>
                <path d="m129.557 36.688-13.538 2.147a2.838 2.838 0 0 1-3.251-2.35l-.358-2.248 19.14-3.037.358 2.24c.249 1.545-.804 2.999-2.35 3.248z" fill="#2F3043" fill-rule="nonzero"/>
                <ellipse fill="#FFC600" fill-rule="nonzero" transform="rotate(-9.04 119.743 33.06)" cx="119.743" cy="33.06" rx="2.112" ry="2.111"/>
                <path fill="#EE2737" fill-rule="nonzero" d="m128.462 33.4 1.125-.178.179 1.124-1.125.179z"/>
                <path fill="#FFF" fill-rule="nonzero" d="m125.507 29.273 1.125-.179.179 1.124-1.125.179zM123.268 29.63l1.124-.18.18 1.125-1.125.178zM125.866 31.52l1.124-.179.18 1.124-1.125.179zM123.625 31.867l1.124-.179.18 1.124-1.126.179zM126.222 33.757l1.125-.178.18 1.123-1.126.18zM123.983 34.114l1.125-.179.179 1.124-1.125.179zM114.217 31.064l1.125-.18.357 2.24-1.125.178zM114.757 34.425l1.125-.179.357 2.239-1.125.179z"/>
                <path fill="#FFF" fill-rule="nonzero" d="m125.953 32.075 1.125-.18.09.563-1.126.178zM123.713 32.431l1.125-.179.09.562-1.125.179z"/>
            </g>
            <g transform="rotate(-180 63.5 70)">
                <circle fill="#CADEF8" cx="15" cy="15" r="15"/>
                <g opacity=".8">
                    <path d="M23.25 6h-18v18h18z"/>
                    <path d="M16.5 12.718v4.659a.75.75 0 0 1-1.19.607l-3.22-2.329a.75.75 0 0 1 0-1.215l3.22-2.33a.75.75 0 0 1 1.19.608z" fill="#000" fill-rule="nonzero"/>
                </g>
            </g>
        </g>
    </g>
</svg>
